<?xml version="1.0" ?><!-- Uploaded to: SVG Repo, www.svgrepo.com, Generator: SVG Repo Mixer Tools -->
<svg width="800px" height="800px" viewBox="0 -2.5 87 87" fill="none" xmlns="http://www.w3.org/2000/svg"><path clip-rule="evenodd" d="M43.8342 0.0817871C21.3949 0.0817871 3.2041 18.2726 3.2041 40.7119C3.2041 63.1512 21.3949 81.342 43.8342 81.342C66.2745 81.342 84.4643 63.1512 84.4643 40.7119C84.4643 18.2726 66.2745 0.0817871 43.8342 0.0817871V0.0817871Z" fill="url(#paint0_radial)" fill-rule="evenodd"/><path clip-rule="evenodd" d="M45.2479 25.9977C43.9403 25.7785 42.6781 26.8165 42.4266 28.3161C42.1752 29.8147 43.0321 31.2077 44.3386 31.427C45.6462 31.6453 46.9094 30.6073 47.1609 29.1087C47.4113 27.609 46.5554 26.216 45.2479 25.9977Z" fill="#282829" fill-rule="evenodd"/><path clip-rule="evenodd" d="M23.8775 21.4042C22.5025 21.1739 21.1729 22.2662 20.9094 23.8432C20.6448 25.4203 21.546 26.8858 22.921 27.1151C24.2959 27.3454 25.6245 26.2541 25.8891 24.677C26.1526 23.1 25.2524 21.6345 23.8775 21.4042V21.4042Z" fill="#282829" fill-rule="evenodd"/><path d="M42.0557 27.065C41.3365 26.889 40.898 26.1618 41.074 25.4437C41.251 24.7255 41.9772 24.286 42.6964 24.463L53.0772 27.0429C53.7953 27.2189 54.2348 27.9461 54.0578 28.6642C53.8818 29.3824 53.1546 29.8219 52.4365 29.6459L42.0557 27.065V27.065Z" fill="#2B2A29"/><path d="M20.1829 22.4783C19.4648 22.3013 19.0252 21.5751 19.2023 20.8569C19.3793 20.1378 20.1055 19.6993 20.8236 19.8753L31.2044 22.4551C31.9236 22.6322 32.3631 23.3583 32.1861 24.0775C32.0091 24.7956 31.2829 25.2352 30.5647 25.0581L20.1829 22.4783Z" fill="#2B2A29"/><path clip-rule="evenodd" d="M12.7676 60.5869C18.8567 65.6329 31.3034 68.6604 39.2099 68.4361C47.6375 68.1977 50.4175 48.7305 46.3953 43.0337C41.2085 35.6874 25.167 32.9134 17.4858 35.0185C11.1181 36.7636 6.46025 55.3587 12.7676 60.5869V60.5869Z" fill="url(#paint1_radial)" fill-rule="evenodd"/><path d="M13.4102 59.8123C16.1721 62.1015 20.3301 63.9702 24.7636 65.2858C29.7745 66.7734 35.1052 67.5488 39.1827 67.4332C40.1161 67.407 40.973 67.0852 41.7495 66.537C43.565 65.2556 44.955 62.7653 45.8813 59.8485C46.8348 56.8432 47.2834 53.4124 47.1969 50.3548C47.1164 47.5164 46.5823 45.0412 45.5735 43.6129C43.3376 40.4447 38.8669 38.1605 33.9656 36.8017C28.126 35.1824 21.7422 34.8947 17.7512 35.988C16.8712 36.2284 15.9971 36.9113 15.1774 37.9C13.5128 39.9086 12.161 43.0748 11.4117 46.4503C10.6614 49.8308 10.5216 53.3873 11.283 56.1653C11.7014 57.6931 12.3944 58.9704 13.4102 59.8123V59.8123ZM24.1974 67.2139C19.5194 65.8259 15.106 63.8314 12.1268 61.3622C10.775 60.2417 9.87183 58.6124 9.3458 56.6933C8.49691 53.5904 8.63672 49.6879 9.45242 46.0178C10.2671 42.3426 11.7657 38.8626 13.6275 36.6166C14.7007 35.3232 15.9146 34.4099 17.2232 34.0509C21.534 32.8701 28.3382 33.1567 34.5007 34.8645C39.8053 36.335 44.6884 38.8716 47.219 42.4563C48.4612 44.2154 49.1129 47.0849 49.2034 50.3005C49.296 53.5653 48.8162 57.2344 47.7943 60.454C46.7443 63.762 45.1068 66.6275 42.9062 68.1815C41.8169 68.9509 40.5938 69.4025 39.238 69.4407C34.9594 69.5614 29.3973 68.7578 24.1974 67.2139V67.2139Z" fill="#D8EDF1"/><path d="M48.1371 51.3145C47.3978 51.2853 46.8225 50.6627 46.8516 49.9235C46.8808 49.1852 47.5034 48.6099 48.2417 48.6381C55.6986 48.9348 62.9172 47.7831 69.2205 44.8975C74.9445 42.2764 79.9262 38.213 83.6547 32.491C84.058 31.8714 84.8878 31.6944 85.5074 32.0977C86.1269 32.5001 86.3029 33.3298 85.9006 33.9504C81.8784 40.123 76.5055 44.5052 70.3329 47.3315C63.6303 50.4012 55.9953 51.6263 48.1371 51.3145Z" fill="#D8EDF1"/><path d="M12.3061 38.0137C12.975 38.3295 13.2616 39.1281 12.9468 39.797C12.631 40.4668 11.8314 40.7535 11.1625 40.4377C8.39058 39.1241 6.43632 37.2946 5.14286 35.3554C3.48532 32.8711 2.90698 30.1876 3.07193 28.1388C3.13027 27.4005 3.77599 26.8484 4.51525 26.9057C5.2535 26.964 5.80568 27.6098 5.74835 28.349C5.62364 29.8869 6.07825 31.9307 7.36768 33.8648C8.41673 35.4379 10.018 36.9294 12.3061 38.0137V38.0137Z" fill="#D8EDF1"/><path d="M46.1008 63.6204C45.3816 63.4414 44.9451 62.7122 45.1241 61.994C45.3032 61.2759 46.0324 60.8384 46.7505 61.0174C53.6422 62.7564 60.7693 63.1557 67.2667 61.5978C72.9434 60.2369 78.1605 57.3724 82.3355 52.5868C82.8213 52.0306 83.6682 51.9743 84.2244 52.4611C84.7806 52.9479 84.8369 53.7938 84.3501 54.35C79.7848 59.5832 74.085 62.7152 67.8853 64.2008C60.9352 65.8674 53.3737 65.456 46.1008 63.6204V63.6204Z" fill="#D8EDF1"/><path d="M10.5011 50.8072C11.182 51.0968 11.4999 51.8844 11.2092 52.5653C10.9195 53.2462 10.132 53.5631 9.45207 53.2734C6.62779 52.0674 4.60313 50.3163 3.23424 48.4285C1.48617 46.0166 0.806255 43.3572 0.890742 41.3004C0.91991 40.5611 1.5435 39.9858 2.28176 40.015C3.02001 40.0431 3.59633 40.6667 3.56716 41.405C3.5038 42.9429 4.03888 44.9665 5.40777 46.8544C6.51716 48.3862 8.17471 49.8134 10.5011 50.8072V50.8072Z" fill="#D8EDF1"/><path d="M36.5124 48.4532C37.2507 48.5135 37.8008 49.1622 37.7395 49.9015C37.6791 50.6398 37.0304 51.1899 36.2921 51.1296C33.8239 50.9194 31.3074 50.512 28.7517 49.8281C26.201 49.1451 23.6091 48.1816 20.989 46.857C20.3292 46.524 20.0637 45.7184 20.3966 45.0576C20.7295 44.3968 21.5361 44.1313 22.1959 44.4642C24.634 45.6973 27.0549 46.5965 29.4447 47.2361C31.8314 47.8748 34.192 48.256 36.5124 48.4532Z" fill="#CFE3E7"/><path d="M34.5466 56.3609C35.2849 56.4212 35.835 57.07 35.7737 57.8092C35.7133 58.5475 35.0646 59.0976 34.3263 59.0363C31.8581 58.8261 29.3416 58.4197 26.7859 57.7358C24.2352 57.0529 21.6433 56.0893 19.0232 54.7647C18.3634 54.4318 18.0978 53.6251 18.4308 52.9653C18.7637 52.3045 19.5703 52.039 20.2301 52.3719C22.6682 53.605 25.0891 54.5042 27.4789 55.1439C29.8656 55.7825 32.2262 56.1627 34.5466 56.3609V56.3609Z" fill="#CFE3E7"/><defs><radialGradient cx="0" cy="0" gradientTransform="translate(31.6424 31.7605) rotate(180) scale(128.795)" gradientUnits="userSpaceOnUse" id="paint0_radial" r="1"><stop stop-color="#FFE28E"/><stop offset="1" stop-color="#F9B86C"/></radialGradient><radialGradient cx="0" cy="0" gradientTransform="translate(39.3385 57.5127) rotate(-179.494) scale(38.4317 33.9839)" gradientUnits="userSpaceOnUse" id="paint1_radial" r="1"><stop stop-color="#D4F2FF"/><stop offset="1" stop-color="#FEFEFE"/></radialGradient></defs></svg>